#N canvas 555 73 1044 764 10;
#X obj 17 34 bng 15 250 50 0 empty empty empty 17 7 0 10 #fcfcfc #000000 #000000;
#X obj 17 343 args;
#X msg 30 55 3.14159;
#X msg 55 115 1 2 3 5 8 13;
#X msg 55 147 list all kind of things;
#X text 38 33 bang;
#X text 85 55 float;
#X text 138 84 symbol;
#X text 203 148 list of symbols (needs the list descriptor);
#X msg 53 177 list this is 3.14159 any 1 2 3 4 thing;
#X text 298 176 list of floats and symbols;
#X text 299 189 (needs the list descriptor);
#X text 264 214 list of anything without descriptor;
#X text 141 113 list of floats (no list descriptor needed);
#X msg 55 213 this is 3.14159 any 1 2 3 4 thing;
#X msg 41 83 symbol lechuga;
#X msg 54 256 float lechuga \, symbol 3.14159;
#X text 241 255 two bad messages;
#X connect 0 0 1 0;
#X connect 2 0 1 0;
#X connect 3 0 1 0;
#X connect 4 0 1 0;
#X connect 9 0 1 0;
#X connect 14 0 1 0;
#X connect 15 0 1 0;
#X connect 16 0 1 0;
