#N canvas 359 90 1491 941 10;
#X obj 4 195 bng 15 250 50 0 empty empty empty 17 7 0 10 #fcfcfc #000000 #000000;
#X msg 93 190 3.14159;
#X msg 271 149 1 2 3 5 8 13;
#X msg 271 119 list all kind of things;
#X text 2 177 bang;
#X text 90 171 float;
#X text 178 170 symbol;
#X text 419 120 list of symbols (needs the list descriptor);
#X msg 271 90 list this is 3.14159 any 1 2 3 4 thing;
#X text 516 89 list of floats and symbols;
#X text 517 102 (needs the list descriptor);
#X text 213 13 list of anything without descriptor;
#X text 357 147 list of floats (no list descriptor needed);
#X msg 4 40 1 2 3 4 \, uuugh so many mess \, 555 aaaargggh!;
#X msg 4 12 this is 3.14159 any 1 2 3 4 thing;
#X msg 182 189 symbol lechuga;
#X text 269 39 three arbitrary messages;
#X obj 4 229 argsio ------ \, ------ \, ------ \, ------ \, ------;
#X obj 4 271 print OUTLET_1;
#X obj 70 298 print OUTLET_2;
#X obj 137 323 print OUTLET_3;
#X obj 204 349 print OUTLET_4;
#X obj 271 376 print OUTLET_5;
#X floatatom 58 370 5 0 0 0 - - - 0;
#X obj 135 379 any;
#X obj 135 408 print;
#X connect 0 0 17 0;
#X connect 1 0 17 1;
#X connect 2 0 17 3;
#X connect 3 0 17 3;
#X connect 8 0 17 3;
#X connect 13 0 17 0;
#X connect 14 0 17 0;
#X connect 15 0 17 2;
#X connect 17 0 18 0;
#X connect 17 1 19 0;
#X connect 17 1 23 0;
#X connect 17 2 20 0;
#X connect 17 2 24 0;
#X connect 17 3 21 0;
#X connect 17 4 22 0;
#X connect 24 0 25 0;
