#N canvas 202 34 1464 843 16;
#X obj 44 44 hsl 400 15 20 22000 1 0 empty empty empty -2 -8 0 10 #fc0400 #000000 #000000 0 1;
#X obj 76 164 hsl 400 15 1 5000 1 0 empty empty empty -2 -8 0 10 #c6ffc7 #000000 #000000 0 1;
#X obj 41 64 nbx 5 14 -1e+37 1e+37 0 0 empty empty empty 0 -8 0 16 #fcfcfc #000000 #000000 0 256;
#X obj 73 186 nbx 5 14 -1e+37 1e+37 0 0 empty empty empty 0 -8 0 16 #fcfcfc #000000 #000000 0 256;
#X obj 32 532 dac~;
#X msg 541 395 \; pd dsp 1;
#X msg 541 434 \; pd dsp 0;
#X obj 541 163 loadbang;
#X obj 41 20 r freq;
#X msg 604 213 440;
#X obj 604 235 s freq;
#X obj 41 463 my_blp~;
#X obj 588 276 s step;
#X msg 588 254 440;
#X obj 73 141 r step;
#X obj 209 362 vsl 15 128 0.01 1 1 0 empty empty empty 0 -9 0 10 #00fc04 #000000 #000000 0 1;
#X obj 41 493 *~;
#X msg 556 338 0.125;
#X obj 556 360 s amp;
#X obj 209 263 r amp;
#N canvas 0 0 450 300 interp 0;
#X obj 161 78 inlet;
#X obj 161 135 line~;
#X obj 160 162 outlet~;
#X msg 161 105 \$1 1;
#X connect 0 0 3 0;
#X connect 1 0 2 0;
#X connect 3 0 1 0;
#X restore 41 96 pd interp;
#N canvas 0 0 450 300 interp 0;
#X obj 161 78 inlet;
#X obj 161 135 line~;
#X obj 160 162 outlet~;
#X msg 161 104 \$1 1;
#X connect 0 0 3 0;
#X connect 1 0 2 0;
#X connect 3 0 1 0;
#X restore 73 207 pd interp;
#X obj 104 275 vsl 15 128 1 200 0 0 empty empty empty 0 -9 0 10 #f8fc00 #000000 #000000 0 1;
#X obj 104 441 nbx 3 14 1 200 0 0 empty empty empty 0 -8 0 16 #f8fc00 #000000 #000000 0 10;
#X obj 541 188 t b b b b b;
#X msg 572 296 10;
#X obj 572 318 s np;
#X obj 104 237 r np;
#X msg 189 102 440;
#X obj 515 89 bng 24 250 50 0 empty empty empty 0 -12 0 16 #fcfcfc #000000 #000000;
#X msg 146 8 440;
#X msg 152 249 10;
#X connect 0 0 2 0;
#X connect 1 0 3 0;
#X connect 2 0 20 0;
#X connect 3 0 21 0;
#X connect 7 0 24 0;
#X connect 8 0 0 0;
#X connect 9 0 10 0;
#X connect 11 0 16 0;
#X connect 13 0 12 0;
#X connect 14 0 1 0;
#X connect 15 0 16 1;
#X connect 16 0 4 0;
#X connect 16 0 4 1;
#X connect 17 0 18 0;
#X connect 19 0 15 0;
#X connect 20 0 11 0;
#X connect 21 0 11 1;
#X connect 22 0 23 0;
#X connect 23 0 11 2;
#X connect 24 0 5 0;
#X connect 24 1 17 0;
#X connect 24 2 25 0;
#X connect 24 3 13 0;
#X connect 24 4 9 0;
#X connect 25 0 26 0;
#X connect 27 0 22 0;
#X connect 28 0 1 0;
#X connect 29 0 24 0;
#X connect 30 0 0 0;
#X connect 31 0 22 0;
