#N canvas 503 177 1920 1064 10;
#X obj 507 274 soundfiler;
#X floatatom 507 296 0 0 0 0 - - - 0;
#X msg 271 83 \; \; pd dsp 1;
#X msg 272 133 \; pd dsp 0 \;;
#N canvas 0 0 450 300 (subpatch) 0;
#X array array99 110251 float 0;
#A color 0;
#A width 1;
#X coords 0 1 110250 -1 200 140 1;
#X restore 416 29 graph;
#X obj 15 241 dac~;
#X obj 202 274 soundfiler;
#X floatatom 202 296 0 0 0 0 - - - 0;
#X obj 24 48 phasor~;
#X obj 24 105 *~;
#X obj 24 25 r freq;
#X obj 39 81 r samps;
#N canvas 546 597 450 300 get-freq 0;
#X obj 153 29 /;
#X msg 142 1 44100;
#X obj 142 -26 t b f;
#X obj 153 62 outlet;
#X obj 142 -65 inlet;
#X connect 0 0 3 0;
#X connect 1 0 0 0;
#X connect 2 0 1 0;
#X connect 2 1 0 1;
#X connect 4 0 2 0;
#X restore 507 366 pd get-freq;
#X obj 526 343 s samps;
#X obj 507 391 s freq;
#X obj 507 319 t f f b;
#X msg 587 336 set array99;
#X obj 587 358 s array;
#X obj 63 105 r array;
#N canvas 546 597 450 300 get-freq 0;
#X obj 153 29 /;
#X msg 142 1 44100;
#X obj 142 -26 t b f;
#X obj 153 62 outlet;
#X obj 142 -65 inlet;
#X connect 0 0 3 0;
#X connect 1 0 0 0;
#X connect 2 0 1 0;
#X connect 2 1 0 1;
#X connect 4 0 2 0;
#X restore 202 366 pd get-freq;
#X obj 221 343 s samps;
#X obj 202 391 s freq;
#X obj 202 319 t f f b;
#X msg 282 336 set array99;
#X obj 282 358 s array;
#X obj 24 202 *~;
#X obj 97 146 hsl 128 15 0 1 0 0 empty empty empty -2 -8 0 10 #fcfcfc #000000 #000000 0 1;
#X floatatom 94 166 5 0 0 0 - - - 0;
#X obj 94 186 sig~;
#X obj 30 326 openpanel;
#X obj 30 303 bng 15 250 50 0 empty empty empty 17 7 0 10 #fcfcfc #000000 #000000;
#X obj 25 133 tabread4~;
#X msg 30 348 read -resize \$1 array99;
#X msg 202 240 read -resize ../waves/cello-fa.wav array99;
#X msg 507 240 read -resize ../waves/voz.wav array99;
#X connect 0 0 1 0;
#X connect 1 0 15 0;
#X connect 6 0 7 0;
#X connect 7 0 22 0;
#X connect 8 0 9 0;
#X connect 9 0 31 0;
#X connect 10 0 8 0;
#X connect 11 0 9 1;
#X connect 12 0 14 0;
#X connect 15 0 12 0;
#X connect 15 1 13 0;
#X connect 15 2 16 0;
#X connect 16 0 17 0;
#X connect 18 0 31 0;
#X connect 19 0 21 0;
#X connect 22 0 19 0;
#X connect 22 1 20 0;
#X connect 22 2 23 0;
#X connect 23 0 24 0;
#X connect 25 0 5 0;
#X connect 25 0 5 1;
#X connect 26 0 27 0;
#X connect 27 0 28 0;
#X connect 28 0 25 1;
#X connect 29 0 32 0;
#X connect 30 0 29 0;
#X connect 31 0 25 0;
#X connect 32 0 6 0;
#X connect 33 0 6 0;
#X connect 34 0 0 0;
