#N canvas 488 321 1211 683 12;
#X obj 159 21 noise~;
#X obj 250 57 hsl 162 19 1 20000 1 0 empty CF CF -2 -10 0 12 #faff00 #000000 #000000 0 1;
#X floatatom 247 81 5 0 0 0 - - - 0;
#X obj 316 95 hsl 162 19 1 20000 1 0 empty BW BW -2 -10 0 12 #00ff04 #000000 #000000 0 1;
#X floatatom 313 119 5 0 0 0 - - - 0;
#X obj 117 217 output~;
#X obj 159 175 reson~;
#N canvas 337 272 702 471 default_parameters 0;
#X obj 94 125 s BW;
#X obj 71 4 loadbang;
#X msg 138 97 440;
#X msg 94 96 44;
#X obj 138 127 s CF;
#X obj 145 5 inlet;
#X obj 71 189 s filter_messages;
#X msg 71 160 print;
#X obj 71 49 t b b b;
#X connect 1 0 8 0;
#X connect 2 0 4 0;
#X connect 3 0 0 0;
#X connect 5 0 8 0;
#X connect 7 0 6 0;
#X connect 8 0 7 0;
#X connect 8 1 3 0;
#X connect 8 2 2 0;
#X restore 348 222 pd default_parameters;
#X obj 348 195 bng 19 250 50 0 empty empty empty 0 -10 0 12 #fcfcfc #000000 #000000;
#X obj 348 219;
#X obj 27 86 r filter_messages;
#X connect 0 0 6 0;
#X connect 1 0 2 0;
#X connect 2 0 6 1;
#X connect 3 0 4 0;
#X connect 4 0 6 2;
#X connect 6 0 5 0;
#X connect 6 0 5 1;
#X connect 8 0 7 0;
#X connect 8 0 9 0;
#X connect 10 0 6 0;
