#N canvas 426 63 1153 825 10;
#X obj 173 183 osc~;
#X obj 207 183 osc~;
#X msg 173 149 440;
#X obj 303 277 hsl 128 15 0.01 1 0 0 empty empty empty -2 -8 0 10 #fc0400 #000000 #000000 0 1;
#X obj 173 336 *~;
#X floatatom 300 297 5 0 0 0 - - - 0;
#X obj 260 104 vsl 15 128 0 1 0 0 empty empty empty 0 -9 0 10 #00fc04 #000000 #000000 0 1;
#X floatatom 260 241 5 0 0 0 - - - 0;
#X obj 162 374 dac~;
#X obj 300 319 line~ \$1 1;
#X msg 64 202 \; pd dsp 0 \;;
#X obj 63 41 loadbang;
#X msg 260 79 0.5;
#X obj 63 62 t b b b b b;
#X msg 63 152 \; pd dsp 1;
#X msg 207 149 1500;
#X obj 173 269 pan~;
#X obj 63 14 bng 16 250 50 0 empty empty empty 0 -8 0 10 #fcfcfc #000000 #000000;
#X msg 300 79 0.25;
#X connect 0 0 16 0;
#X connect 1 0 16 1;
#X connect 2 0 0 0;
#X connect 3 0 5 0;
#X connect 4 0 8 0;
#X connect 4 0 8 1;
#X connect 5 0 9 0;
#X connect 6 0 7 0;
#X connect 7 0 16 2;
#X connect 9 0 4 1;
#X connect 11 0 13 0;
#X connect 12 0 6 0;
#X connect 13 0 14 0;
#X connect 13 1 2 0;
#X connect 13 2 15 0;
#X connect 13 3 12 0;
#X connect 13 4 18 0;
#X connect 15 0 1 0;
#X connect 16 0 4 0;
#X connect 17 0 13 0;
#X connect 18 0 3 0;
