#N canvas 425 34 992 614 10;
#X obj 27 20 bng 15 250 50 0 empty empty empty 17 7 0 10 #fcfcfc #000000 #000000;
#X obj 27 104 bng 15 250 50 0 empty empty empty 17 7 0 10 #fcfcfc #000000 #000000;
#X floatatom 27 192 5 0 0 0 - - - 0;
#X obj 251 14 bng 18 250 50 0 empty empty empty 17 7 0 10 #fcfcfc #000000 #000000;
#X floatatom 251 191 5 0 0 0 - - - 0;
#X msg 279 71 0 10;
#X msg 191 104 reset;
#X msg 308 109 2;
#X msg 192 134 set 6;
#X text 313 69 bound (min \, max);
#X text 335 108 step;
#X text 172 83 set to min;
#X text 173 152 set to value;
#X obj 308 195 bng 19 250 50 0 empty empty empty 17 7 0 10 #fcfcfc #000000 #000000;
#X obj 27 44 hello2;
#X obj 27 145 counter_a2;
#X obj 251 151 counter_b2;
#X connect 0 0 14 0;
#X connect 1 0 15 0;
#X connect 3 0 16 0;
#X connect 5 0 16 1;
#X connect 6 0 16 0;
#X connect 7 0 16 2;
#X connect 8 0 16 0;
#X connect 15 0 2 0;
#X connect 16 0 4 0;
#X connect 16 1 13 0;
